# xmcd
#
# Track frame offsets:
#	150
#	13699
#	28448
#	43527
#	60693
#
# Disc length: 968 seconds
#
# Revision: 1
# Processed by: cddbd v1.5.2PL0 Copyright (c) Steve Scherf et al.
# Submitted via: EZCDAudioConverter 2.1.3.1
#
DISCID=3e03c605
DTITLE=Michael Cosner - Stay Country
DYEAR=2012
DGENRE=Country
TTITLE0=Kickin' It Down The Road
TTITLE1=The Future Ain't What It Used To Be
TTITLE2=Dogs Love To Ride
TTITLE3=Stay Country
TTITLE4=G-man
EXTD=
EXTT0=
EXTT1=
EXTT2=
EXTT3=
EXTT4=
PLAYORDER=
